<svg width="29" height="26" viewBox="0 0 29 26" fill="none" xmlns="http://www.w3.org/2000/svg">
<path fill-rule="evenodd" clip-rule="evenodd" d="M25.7778 5.1524C27.655 5.82163 29 7.62739 29 9.75C29 11.8726 27.655 13.6784 25.7778 14.3476V24.375C25.7778 25.2725 25.0565 26 24.1667 26C23.2769 26 22.5556 25.2725 22.5556 24.375V14.3476C20.6783 13.6784 19.3333 11.8726 19.3333 9.75C19.3333 7.62739 20.6783 5.82163 22.5556 5.1524V1.625C22.5556 0.727537 23.2769 0 24.1667 0C25.0565 0 25.7778 0.727537 25.7778 1.625V5.1524ZM19.3333 17.875C19.3333 19.9976 17.9884 21.8034 16.1111 22.4726V24.375C16.1111 25.2725 15.3898 26 14.5 26C13.6102 26 12.8889 25.2725 12.8889 24.375V22.4726C11.0116 21.8034 9.66667 19.9976 9.66667 17.875C9.66667 15.7524 11.0116 13.9466 12.8889 13.2774V1.625C12.8889 0.727537 13.6102 0 14.5 0C15.3898 0 16.1111 0.727537 16.1111 1.625V13.2774C17.9884 13.9466 19.3333 15.7524 19.3333 17.875ZM6.44444 5.1524C8.3217 5.82163 9.66667 7.62739 9.66667 9.75C9.66667 11.8726 8.3217 13.6784 6.44444 14.3476V24.375C6.44444 25.2725 5.72313 26 4.83333 26C3.94354 26 3.22222 25.2725 3.22222 24.375V14.3476C1.34497 13.6784 0 11.8726 0 9.75C0 7.62739 1.34497 5.82163 3.22222 5.1524V1.625C3.22222 0.727537 3.94354 0 4.83333 0C5.72313 0 6.44444 0.727537 6.44444 1.625V5.1524ZM4.83333 11.375C5.72313 11.375 6.44444 10.6475 6.44444 9.75C6.44444 8.85254 5.72313 8.125 4.83333 8.125C3.94354 8.125 3.22222 8.85254 3.22222 9.75C3.22222 10.6475 3.94354 11.375 4.83333 11.375ZM24.1667 11.375C25.0565 11.375 25.7778 10.6475 25.7778 9.75C25.7778 8.85254 25.0565 8.125 24.1667 8.125C23.2769 8.125 22.5556 8.85254 22.5556 9.75C22.5556 10.6475 23.2769 11.375 24.1667 11.375ZM14.5 19.5C15.3898 19.5 16.1111 18.7725 16.1111 17.875C16.1111 16.9775 15.3898 16.25 14.5 16.25C13.6102 16.25 12.8889 16.9775 12.8889 17.875C12.8889 18.7725 13.6102 19.5 14.5 19.5Z" fill="#D9D9D9"/>
</svg>
