<svg width="65" height="65" viewBox="0 0 65 65" fill="none" xmlns="http://www.w3.org/2000/svg">
<path d="M19.6547 4.60109L37.8814 5.73249L37.7311 5.77021L49.7193 0.226306L49.8697 0.150879L50.02 0.188593L56.559 2.26284L56.7845 2.33827L56.8597 2.60226L57.3858 4.3748L57.2355 4.11081L63.4739 9.23986L63.8121 9.50386L63.6242 9.9187L61.7076 14.1426L61.5197 14.5575L61.0311 14.4821L56.7845 13.7655L57.461 13.4638L55.3564 16.7072L55.2813 16.858L55.131 16.9334L52.0869 18.6683L52.2372 17.5369L57.724 22.9299L57.3482 22.7413L59.34 23.1939L59.6782 23.2693L59.8285 23.6087L60.3923 24.5893L61.1063 25.7207L59.9037 26.211L55.2061 26.2487H54.9806L54.7551 26.0978L46.9008 21.1196L47.3517 21.2705L42.9924 21.0819L43.8943 20.4785L42.6542 23.7973L42.0904 22.5905L44.0822 23.2693L44.4204 23.3825L44.6083 23.7219L45.36 25.0796L46.1492 26.5127H44.4956L39.1216 26.5504H38.182L38.1069 25.6076L37.6183 19.5357L38.3324 20.4408L30.5156 17.8386L31.6054 17.6123L28.0728 20.8934L28.2231 19.3848L30.8162 22.9676L30.3277 22.5528L32.2819 23.3448L32.7328 23.5333L32.9207 24.0236L33.2965 24.9664L33.973 26.6258H32.1691L28.599 26.6635H28.1104L27.7346 26.3241L21.7217 20.8179L21.0452 20.2145L21.3459 19.3848L22.323 16.6694L23.9389 18.4043L19.4668 19.6488L15.0323 20.9311L15.6336 20.5539L11.8755 24.4384L11.65 22.3265L13.0029 23.2316L13.4163 23.4956L13.5667 23.9482L13.9425 25.0042L14.5813 26.8144H12.6647L9.09455 26.7767H8.64358L8.26778 26.1733L7.02761 24.2122L6.4639 23.307L6.76455 22.779L11.387 15.3495L11.65 14.9346L12.101 14.8215L15.4833 13.9163L14.8068 14.4443L19.542 7.1279L19.9178 8.59873L18.4146 7.6936L19.3917 7.73132C18.377 8.22159 17.4375 8.56102 16.498 8.97586L13.6042 10.1073C11.6876 10.8615 9.77101 11.5781 7.81681 12.2947L7.59132 12.3701L7.40342 12.3324L3.19438 11.6158L0.300659 10.9747L3.11921 10.2581L7.29068 9.27757L7.47858 9.23986L7.6289 9.27757L9.50794 9.9187L9.09455 9.95642L14.3934 7.24104L17.0241 5.92106L19.6547 4.60109ZM19.6923 4.86508L17.1744 6.41134L14.6565 7.91988L9.62068 10.8993L9.43278 11.0124L9.2073 10.937L7.29068 10.409H7.59132L3.45744 11.6158L3.38228 10.2204L7.6289 10.7107L7.21552 10.7484L12.8902 8.33473L15.7088 7.09018C16.6483 6.67533 17.5878 6.26048 18.4522 5.80792L18.9407 5.54393L19.4293 5.84563L20.9325 6.71305L21.872 7.24104L21.3083 8.18388L16.7986 15.6135L16.5731 15.9906L16.1222 16.1415L12.7775 17.122L13.4915 16.594L9.01939 24.1367V22.7413L10.2971 24.6647L9.16971 24.0613L12.7399 24.0236L11.4621 25.8338L11.0863 24.7779L11.65 25.4567L10.2596 24.5893L8.86907 23.6842L10.0341 22.4773L13.7921 18.5928L14.0552 18.3288L14.431 18.2157L18.7904 17.0466L23.2625 15.8397L25.7804 15.1609L24.8785 17.5746L23.8638 20.2899L23.488 18.8568L29.5009 24.4384L28.6741 24.1367L32.2443 24.1744L31.1169 25.8338L30.7411 24.891L31.3799 25.5699L29.4633 24.7402L29.1627 24.5893L28.9372 24.2876L26.4193 20.6671L25.818 19.8374L26.5696 19.1585L30.1398 15.9529L30.6283 15.5003L31.2296 15.7266L39.0088 18.442L39.6853 18.6683L39.7229 19.3471L40.1362 25.419L39.1216 24.4762L44.4956 24.5139L43.6688 25.947L42.9172 24.5893L43.4433 25.0419L41.4516 24.3253L40.5496 23.9859L40.8879 23.0808L42.1656 19.7997L42.3911 19.1585L43.0675 19.1963L47.4269 19.4602H47.6524L47.8403 19.5734L55.6195 24.7024L55.1685 24.5893L59.8661 24.627L59.1521 25.7584L58.4005 24.2876L58.9266 24.7024L56.9348 24.2122L56.7093 24.1744L56.559 24.0236L51.1474 18.5551L50.4709 17.8763L51.2977 17.4237L54.3793 15.7266L54.1539 15.9529L56.296 12.7095L56.5214 12.3324L56.9348 12.4078L61.1815 13.1998L60.505 13.5392L62.4968 9.353L62.6471 10.0318L56.5214 4.78965L56.4087 4.67651L56.3711 4.52566L55.8826 2.75312L56.1832 3.09254L49.7193 0.905151H50.02L37.9566 6.2982L37.8814 6.33591H37.8062L19.6923 4.86508Z" fill="#181818"/>
<path d="M39.2718 63.1326H17.024V39.7879L9.01935 26.3241H41.0006C41.1885 26.3241 46.2994 26.2864 51.5983 28.3984C56.4838 30.3595 62.3464 34.5457 62.7598 43.5215C62.9853 48.462 61.7827 55.2505 54.7175 59.5121C50.6588 61.9635 46.5249 62.4538 46.0364 62.4915C45.6982 62.5669 42.7293 63.1326 39.2718 63.1326ZM18.0011 62.4915H39.2718C42.7293 62.4915 45.8109 61.8504 45.8485 61.8504H45.9236C45.9612 61.8504 50.1327 61.4355 54.1538 58.9841C59.4903 55.7408 62.1209 50.3854 61.8203 43.5215C61.4821 36.5822 57.9119 31.6795 51.1474 28.9641C46.1115 26.9276 41.0757 26.9653 41.0006 26.9653H10.4474L18.0011 39.6748V62.4915Z" fill="#181818" stroke="#181818" stroke-width="3" stroke-miterlimit="10"/>
<path d="M34.1985 59.6252L24.3899 40.2781V30.6989H39.2343C45.9612 30.6989 48.6295 32.6222 48.7422 32.6977L48.9301 32.8485L34.1985 59.6252ZM25.367 40.1273L34.236 57.6641L47.8403 32.9994C47.1262 32.5845 44.5332 31.34 39.2719 31.34H25.367V40.1273Z" fill="#181818" stroke="#181818" stroke-width="3" stroke-miterlimit="10"/>
<path d="M25.4797 42.277L24.3899 40.2404H24.3147L17.4374 27.2669L18.3394 27.0784L26.2689 42.1638L25.4797 42.277Z" fill="#181818" stroke="#181818" stroke-width="3" stroke-miterlimit="10"/>
<path d="M30.3652 62.944L17.0616 39.8632L17.9636 39.637L31.2672 62.7177L30.3652 62.944Z" fill="#181818" stroke="#181818" stroke-width="3" stroke-miterlimit="10"/>
<path d="M24.202 59.0218L24.3147 50.7249L29.0123 58.9841L24.202 59.0218ZM25.2166 54.1945L25.1791 58.3807H27.5842L25.2166 54.1945Z" fill="#181818" stroke="#181818" stroke-width="3" stroke-miterlimit="10"/>
<path d="M38.5954 62.8309L37.6935 62.6046L52.4251 37.1857L52.4627 37.1102C50.6213 34.3949 48.1409 33.188 48.1409 33.188L48.7046 32.66C48.8174 32.6977 51.4105 33.9423 53.3646 36.8462C53.4398 36.9971 53.5526 37.1102 53.6277 37.2611C54.943 39.3731 55.5443 41.8244 55.4316 44.4644C55.0934 52.2711 51.7487 54.8356 49.9448 56.1933C49.7945 56.3065 49.6817 56.3819 49.569 56.495L49.5314 56.5327C47.7651 57.5887 44.5332 58.4184 41.1885 58.6447C40.1738 60.3041 38.5954 62.8309 38.5954 62.8309ZM52.9888 37.9777L41.414 57.9659C44.7962 57.7019 47.5396 56.8345 48.8174 56.0425C48.9301 55.967 49.0429 55.8539 49.1932 55.7785C50.9219 54.4585 54.0787 52.0448 54.4169 44.4267C54.5297 42.0507 54.0787 39.901 52.9888 37.9777Z" fill="#181818" stroke="#181818" stroke-width="3" stroke-miterlimit="10"/>
<path d="M56.6795 31L55.7529 30.7778L58.4942 26.6296H51.9691L50.9266 28.2593L50 28L51.2741 26H60L56.6795 31Z" fill="#181818" stroke="#181818" stroke-width="3" stroke-miterlimit="10"/>
<path d="M10.4474 26.9652L30.6283 62.2652L38.5954 62.8309L52.4251 37.1856L48.1033 33.1502L36.0399 55.1373L34.687 57.0607L34.2361 57.6641L17.4375 27.2669L10.4474 26.9652Z" fill="#181818"/>
<path d="M50.3582 28.3229L52.2748 26.9275L59.3024 26.475L55.9577 31.1515L50.3582 28.3229Z" fill="#181818"/>
</svg>
